{
  "source": "C:\\Users\\Peter\\Desktop\\stuff\\MIUN\\quantitative_research\\video_compression\\videos\\BVI-HD\\BVI-HD_CDVL_videos\\ORIG\\BubblesPitcher_1920x1080_60fps.mp4",
  "output": "C:\\Users\\Peter\\Desktop\\stuff\\MIUN\\quantitative_research\\video_compression\\compressed_videos\\BVI-HD\\h264\\1\\BubblesPitcher_1920x1080_60fps_h264.mp4",
  "codec": "h264",
  "ok": "Input #0, mov,mp4,m4a,3gp,3g2,mj2, from 'C:\\Users\\Peter\\Desktop\\stuff\\MIUN\\quantitative_research\\video_compression\\videos\\BVI-HD\\BVI-HD_CDVL_videos\\ORIG\\BubblesPitcher_1920x1080_60fps.mp4':\n  Metadata:\n    major_brand     : isom\n    minor_version   : 512\n    compatible_brands: isomiso2avc1mp41\n    encoder         : Lavf54.28.101\n  Duration: 00:00:05.00, start: 0.000000, bitrate: 188849 kb/s\n  Stream #0:0[0x1](und): Video: h264 (High 4:4:4 Predictive) (avc1 / 0x31637661), yuv420p(progressive), 1920x1080, 188844 kb/s, 60 fps, 60 tbr, 60 tbn (default)\n    Metadata:\n      handler_name    : VideoHandler\n      vendor_id       : [0][0][0][0]\n[out#0/mp4 @ 0000020bca191440] Codec AVOption b:a (set bitrate (in bits/s)) has not been used for any stream. The most likely reason is either wrong type (e.g. a video option with no video streams) or that it is a private option of some decoder which was not actually used for any stream.\nStream mapping:\n  Stream #0:0 -> #0:0 (h264 (native) -> h264 (libx264))\nPress [q] to stop, [?] for help\n[libx264 @ 0000020bca8c2240] using cpu capabilities: MMX2 SSE2Fast SSSE3 SSE4.2 AVX FMA3 BMI2 AVX2\n[libx264 @ 0000020bca8c2240] profile High, level 5.0, 4:2:0, 8-bit\n[libx264 @ 0000020bca8c2240] 264 - core 165 r3222 b35605a - H.264/MPEG-4 AVC codec - Copyleft 2003-2025 - http://www.videolan.org/x264.html - options: cabac=1 ref=5 deblock=1:0:0 analyse=0x3:0x113 me=hex subme=8 psy=1 psy_rd=1.00:0.00 mixed_ref=1 me_range=16 chroma_me=1 trellis=2 8x8dct=1 cqm=0 deadzone=21,11 fast_pskip=1 chroma_qp_offset=-2 threads=18 lookahead_threads=3 sliced_threads=0 nr=0 decimate=1 interlaced=0 bluray_compat=0 constrained_intra=0 bframes=3 b_pyramid=2 b_adapt=1 b_bias=0 direct=3 weightb=1 open_gop=0 weightp=2 keyint=250 keyint_min=25 scenecut=40 intra_refresh=0 rc_lookahead=50 rc=cbr mbtree=1 bitrate=1000 ratetol=1.0 qcomp=0.60 qpmin=0 qpmax=69 qpstep=4 vbv_maxrate=1000 vbv_bufsize=1000 nal_hrd=none filler=0 ip_ratio=1.40 aq=1:1.00\nOutput #0, mp4, to 'C:\\Users\\Peter\\Desktop\\stuff\\MIUN\\quantitative_research\\video_compression\\compressed_videos\\BVI-HD\\h264\\1\\BubblesPitcher_1920x1080_60fps_h264.mp4':\n  Metadata:\n    major_brand     : isom\n    minor_version   : 512\n    compatible_brands: isomiso2avc1mp41\n    encoder         : Lavf62.3.100\n  Stream #0:0(und): Video: h264 (avc1 / 0x31637661), yuv420p(tv, progressive), 1920x1080, q=2-31, 1000 kb/s, 60 fps, 15360 tbn (default)\n    Metadata:\n      encoder         : Lavc62.11.100 libx264\n      handler_name    : VideoHandler\n      vendor_id       : [0][0][0][0]\n    Side data:\n      cpb: bitrate max/min/avg: 1000000/0/1000000 buffer size: 1000000 vbv_delay: N/A\nframe=    0 fps=0.0 q=0.0 size=       0KiB time=N/A bitrate=N/A speed=N/A elapsed=0:00:00.54    \nframe=    8 fps=7.6 q=44.0 size=       0KiB time=00:00:00.10 bitrate=   3.8kbits/s speed=0.0949x elapsed=0:00:01.05    \nframe=   48 fps= 31 q=41.0 size=       0KiB time=00:00:00.76 bitrate=   0.5kbits/s speed=0.488x elapsed=0:00:01.56    \nframe=   84 fps= 40 q=42.0 size=       0KiB time=00:00:01.36 bitrate=   0.3kbits/s speed=0.651x elapsed=0:00:02.09    \nframe=  107 fps= 41 q=44.0 size=       0KiB time=00:00:01.75 bitrate=   0.2kbits/s speed=0.668x elapsed=0:00:02.62    \nframe=  112 fps= 36 q=46.0 size=       0KiB time=00:00:01.83 bitrate=   0.2kbits/s speed=0.585x elapsed=0:00:03.13    \nframe=  128 fps= 35 q=48.0 size=       0KiB time=00:00:02.10 bitrate=   0.2kbits/s speed=0.576x elapsed=0:00:03.64    \nframe=  142 fps= 34 q=49.0 size=       0KiB time=00:00:02.33 bitrate=   0.2kbits/s speed=0.56x elapsed=0:00:04.16    \nframe=  158 fps= 34 q=50.0 size=     256KiB time=00:00:02.60 bitrate= 806.7kbits/s speed=0.555x elapsed=0:00:04.68    \nframe=  172 fps= 33 q=51.0 size=     256KiB time=00:00:02.83 bitrate= 740.3kbits/s speed=0.546x elapsed=0:00:05.19    \nframe=  188 fps= 33 q=51.0 size=     256KiB time=00:00:03.10 bitrate= 676.6kbits/s speed=0.542x elapsed=0:00:05.71    \nframe=  204 fps= 33 q=52.0 size=     256KiB time=00:00:03.36 bitrate= 623.0kbits/s speed=0.54x elapsed=0:00:06.23    \nframe=  220 fps= 33 q=52.0 size=     256KiB time=00:00:03.63 bitrate= 577.3kbits/s speed=0.539x elapsed=0:00:06.73    \nframe=  241 fps= 33 q=51.0 size=     256KiB time=00:00:03.98 bitrate= 526.6kbits/s speed=0.549x elapsed=0:00:07.25    \n[mp4 @ 0000020bca191540] Starting second pass: moving the moov atom to the beginning of the file\n[out#0/mp4 @ 0000020bca191440] video:606KiB audio:0KiB subtitle:0KiB other streams:0KiB global headers:0KiB muxing overhead: 0.491156%\nframe=  300 fps= 39 q=-1.0 Lsize=     609KiB time=00:00:04.96 bitrate=1004.2kbits/s speed=0.65x elapsed=0:00:07.64    \n[libx264 @ 0000020bca8c2240] frame I:2     Avg QP:31.31  size:  7220\n[libx264 @ 0000020bca8c2240] frame P:207   Avg QP:44.73  size:  2455\n[libx264 @ 0000020bca8c2240] frame B:91    Avg QP:38.63  size:  1066\n[libx264 @ 0000020bca8c2240] consecutive B-frames: 59.3%  0.0%  2.0% 38.7%\n[libx264 @ 0000020bca8c2240] mb I  I16..4: 24.7% 75.1%  0.2%\n[libx264 @ 0000020bca8c2240] mb P  I16..4:  3.1%  7.0%  0.0%  P16..4:  7.7%  0.2%  0.2%  0.0%  0.0%    skip:81.7%\n[libx264 @ 0000020bca8c2240] mb B  I16..4:  0.2%  0.2%  0.0%  B16..8:  8.5%  0.1%  0.0%  direct: 0.1%  skip:90.9%  L0:38.8% L1:60.6% BI: 0.6%\n[libx264 @ 0000020bca8c2240] 8x8 transform intra:69.3% inter:97.9%\n[libx264 @ 0000020bca8c2240] direct mvs  spatial:89.0% temporal:11.0%\n[libx264 @ 0000020bca8c2240] coded y,uvDC,uvAC intra: 1.5% 29.8% 0.3% inter: 0.2% 2.1% 0.0%\n[libx264 @ 0000020bca8c2240] i16 v,h,dc,p: 54% 33%  4%  9%\n[libx264 @ 0000020bca8c2240] i8 v,h,dc,ddl,ddr,vr,hd,vl,hu:  7%  1% 89%  1%  0%  1%  0%  0%  0%\n[libx264 @ 0000020bca8c2240] i4 v,h,dc,ddl,ddr,vr,hd,vl,hu: 21%  5% 45%  4%  8%  6%  4%  3%  4%\n[libx264 @ 0000020bca8c2240] i8c dc,h,v,p: 90%  6%  3%  0%\n[libx264 @ 0000020bca8c2240] Weighted P-Frames: Y:0.5% UV:0.5%\n[libx264 @ 0000020bca8c2240] ref P L0: 44.5%  3.0% 19.9% 10.7% 11.0% 10.8%\n[libx264 @ 0000020bca8c2240] ref B L0: 68.3% 19.5%  9.0%  3.2%\n[libx264 @ 0000020bca8c2240] ref B L1: 89.3% 10.7%\n[libx264 @ 0000020bca8c2240] kb/s:991.38\n",
  "seconds": 7.813706874847412,
  "probe_out": {}
}